PathFileType	4	(X/Y/Z)	C:\Users\WrightLab\Desktop\Jo\P5V116.trc
DataRate	CameraRate	NumFrames	NumMarkers	Units	OrigDataRate	OrigDataStartFrame	OrigNumFrames
100.00	100.00	       11	19	mm	100.00	185	       492
Frame#	Time	Headset_Front			Headset_Back			Headset_Left			Headset_Right			Left_Shoulder			Right_Shoulder			Sternum			C7			Left Elbow			Right Elbow			Left Wrist			Right Wrist			Left ASIS			Right ASIS			S2			Left Knee			Right Knee			Left Ankle			Right Ankle			
		X1	Y1	Z1	X2	Y2	Z2	X3	Y3	Z3	X4	Y4	Z4	X5	Y5	Z5	X6	Y6	Z6	X7	Y7	Z7	X8	Y8	Z8	X9	Y9	Z9	X10	Y10	Z10	X11	Y11	Z11	X12	Y12	Z12	X13	Y13	Z13	X14	Y14	Z14	X15	Y15	Z15	X16	Y16	Z16	X17	Y17	Z17	X18	Y18	Z18	X19	Y19	Z19	

185	1.840				-358.53879	1634.47534	370.97491							-242.75261	1496.84045	21.91927	-534.19476	1473.26660	321.07959	-328.97336	1335.50061	251.06409	-478.38898	1526.31580	93.52248	-228.36848	1221.57178	-66.42133	-673.36914	1218.08875	317.73526	-159.56065	1159.00854	132.21628	-509.43799	1076.95752	424.42050	-233.41765	939.51025	168.44089	-443.65823	965.79425	358.90158	-493.79645	974.54791	31.27491	-210.82068	513.34735	200.83363	-508.98328	518.02948	379.40454	-464.00958	251.94899	11.34887	-591.72607	109.41251	251.78204	
186	1.850				-351.54187	1634.52258	377.77774							-240.79811	1496.37268	28.77323	-528.50763	1474.38586	330.86072	-324.00092	1334.43311	255.58739	-473.98364	1526.66577	102.16725	-225.48692	1222.73853	-63.62335	-667.48962	1218.18237	327.40643	-154.68726	1159.32495	136.25769	-502.43350	1077.06506	432.62885	-227.82520	938.85413	172.85692	-436.04871	967.41412	366.52328	-490.72232	974.50201	36.87257	-202.10973	515.02026	204.28639	-506.99426	517.45770	385.09036	-451.45108	248.60640	25.76606	-590.29889	109.34772	251.87950	
187	1.860				-345.21225	1634.59595	384.59583							-236.56685	1495.99365	34.36268	-520.84857	1472.48157	337.31366	-318.10178	1334.38940	261.07205	-469.02374	1526.23987	110.10713	-223.39177	1222.60144	-54.94693	-661.34277	1218.51062	337.40863	-149.65875	1159.12488	139.41154	-495.22220	1077.82764	440.12943	-222.41267	938.94495	176.46841	-429.39984	965.38965	370.44009	-487.46240	974.36310	42.43718	-194.33832	516.94592	207.41032	-503.96573	516.81659	390.23840	-437.74475	243.03450	41.76578	-589.83099	109.76282	252.18045	
188	1.870				-338.57129	1634.18713	391.00854							-231.92795	1496.66406	37.65216	-514.81244	1472.28479	345.48425	-312.99823	1333.74573	265.97134	-464.76270	1526.16833	118.08963	-220.45709	1222.79456	-52.09418	-654.97955	1218.31042	346.77179	-144.48419	1158.71155	142.95917	-487.63489	1078.19873	448.41888	-216.82204	938.30194	180.13705	-427.40704	961.87842	371.79483	-485.08362	974.36987	47.79442	-188.23888	518.23987	210.30283	-499.14236	516.27606	394.38358	-423.60385	237.13062	57.73823	-589.12720	110.56215	252.68927	
189	1.880				-332.26096	1633.86609	397.81668							-227.68092	1497.22437	43.42841	-507.45163	1471.80298	353.10608	-307.30374	1333.48413	271.80753	-459.80719	1526.33032	125.14732	-217.16530	1222.51343	-46.85582	-648.89362	1218.24451	355.90491	-139.43356	1158.35815	147.48286	-480.26373	1078.09473	455.34131	-211.65396	938.01825	183.78970	-417.89294	964.03973	378.27048	-482.48581	975.08374	52.44854	-180.33287	519.44000	213.55397	-495.59625	514.83722	398.52924	-407.84207	230.76376	72.88469	-590.30457	111.34471	253.42351	
190	1.890				-325.95422	1633.03418	404.43488							-223.42203	1496.43518	48.76194	-500.83313	1471.60498	360.83014	-301.90353	1332.82019	277.09012	-455.16586	1526.39026	132.94196	-213.84064	1223.03882	-41.94143	-642.10608	1218.87488	364.94397	-134.14969	1157.83557	151.63235	-473.28024	1078.69019	463.73663	-206.52361	937.03174	188.01906	-413.30035	960.78961	382.99811	-479.81021	974.87286	58.41020	-171.66554	521.63690	216.92842	-491.49506	513.59534	403.17709	-390.91171	223.71446	88.27553	-590.00317	112.61122	253.78204	
191	1.900				-319.32242	1632.79175	410.74438							-218.66254	1496.54041	54.31923	-493.81567	1471.06250	368.21063	-295.93201	1331.92920	283.22794	-449.93610	1526.42358	140.06728	-210.23700	1222.33582	-36.64420	-634.97192	1218.23547	374.18942	-129.23868	1156.91614	155.24277	-465.71188	1077.99109	470.98676	-201.49420	936.93024	191.40573	-405.93069	961.28571	389.59415	-476.48343	975.39221	63.71050	-162.95442	524.78442	222.15892	-486.71915	512.61481	407.24103	-373.47186	216.28334	103.31560	-589.19604	112.44065	254.83775	
192	1.910				-313.39432	1632.64990	417.83609							-214.00859	1496.06689	59.60472	-487.11490	1471.01318	375.81961	-290.04880	1331.37646	289.18121	-444.56259	1526.52246	147.22290	-206.13571	1222.86169	-33.19552	-628.39081	1218.38464	382.73166	-123.52361	1156.33081	159.31464	-458.64795	1078.11670	478.39450	-196.80455	936.15887	194.88744	-399.52499	959.85919	394.44159	-473.27045	975.60266	69.34084	-153.45975	528.10638	228.18147	-483.54822	510.93024	408.44360	-356.29932	208.30336	117.89290	-588.68848	113.30959	255.54391	
193	1.920				-306.61523	1632.20361	424.23572							-208.11617	1495.79504	66.49170	-480.15482	1470.56360	383.05301	-283.79324	1330.86121	294.73788	-439.21753	1526.75098	154.56865	-202.61095	1223.31042	-27.23825	-621.35895	1218.21130	391.75372	-117.96172	1156.06079	163.07997	-451.35211	1077.71960	485.77179	-191.77783	935.32129	198.80968	-393.32446	959.26642	398.27908	-470.31299	975.82336	74.86192	-143.26663	530.76532	234.32986	-479.10434	510.71429	412.73999	-335.61554	199.89749	132.12090	-588.26782	114.47932	256.04837	
194	1.930				-300.02023	1632.08765	430.70303							-205.40367	1494.36755	73.30658	-473.06064	1470.07288	390.25623	-277.53720	1330.20825	300.89734	-433.63797	1526.64441	161.67789	-198.45995	1222.54614	-23.28942	-614.29175	1218.00391	399.93442	-112.79195	1155.71643	167.23015	-443.68362	1077.85205	493.32239	-187.33047	934.70807	203.05505	-385.93649	958.40979	404.26450	-466.09943	975.64130	80.70418	-134.56270	533.35553	240.67433	-472.82809	510.12119	419.80554	-315.91119	190.97986	146.83678	-587.75848	115.00285	256.49414	
195	1.940				-293.37363	1631.48022	437.14786							-199.09033	1495.98315	77.28216	-465.78290	1469.74023	397.47946	-270.56207	1330.25366	306.81409	-428.00308	1526.76221	168.90230	-194.05501	1223.57788	-18.02910	-607.17322	1218.07324	407.73431	-106.75309	1154.53711	171.66522	-435.63196	1076.90308	500.25055	-182.21663	934.51160	206.52203	-383.02112	958.65326	409.99527	-462.21979	976.44452	85.36533	-126.27477	537.16199	245.41859	-467.74506	508.81506	423.57471	-293.83630	182.78555	161.14253	-586.32709	115.19083	256.79044	
